<?xml version="1.0" standalone="no"?>
<!DOCTYPE svg PUBLIC "-//W3C//DTD SVG 20010904//EN",
 "http://www.w3.org/TR/2001/REC-SVG-20010904/DTD/svg10.dtd">
<svg version="1.0" xmlns="http://www.w3.org/2000/svg"
 width="716.000000pt" height="716.000000pt" viewBox="0 0 716.000000 716.000000"
 preserveAspectRatio="xMidYMid meet">
<metadata>
Created by potrace 1.16, written by Peter Selinger 2001-2019
</metadata>
<g transform="translate(0.000000,716.000000) scale(0.100000,-0.100000)"
fill="#000000" stroke="none">
<path d="M3374 6285 c-329 -45 -592 -140 -870 -315 -86 -55 -232 -162 -299
-221 -118 -103 -169 -150 -315 -290 -91 -86 -187 -175 -213 -196 -140 -115
-350 -196 -542 -209 -112 -8 -118 -11 -112 -42 4 -15 10 -47 15 -72 17 -80 38
-135 69 -178 107 -147 229 -233 421 -296 45 -15 82 -31 82 -35 0 -16 -58 -88
-98 -122 -22 -19 -83 -57 -136 -84 -53 -28 -96 -55 -96 -62 0 -17 115 -98 195
-137 81 -38 131 -52 232 -62 l73 -7 10 -36 c6 -20 26 -119 45 -221 20 -102 41
-198 46 -215 9 -25 7 -45 -15 -116 -65 -213 -4 -440 157 -584 51 -47 85 -59
72 -27 -4 9 -13 45 -21 80 -7 34 -15 66 -18 71 -15 24 -40 180 -51 329 -6 68
-5 72 12 61 10 -6 28 -32 41 -58 26 -56 59 -94 75 -88 7 2 14 33 17 72 6 79 8
76 55 -58 46 -132 101 -219 182 -289 161 -138 379 -166 598 -76 194 80 395
287 511 527 67 136 90 161 151 161 68 0 96 -19 129 -90 84 -183 134 -258 258
-390 160 -171 343 -259 538 -260 207 -1 391 117 485 310 39 80 98 256 105 309
5 41 23 33 37 -16 8 -27 17 -52 21 -58 4 -5 10 -23 13 -40 15 -78 24 -100 45
-110 24 -11 28 -25 11 -42 -5 -5 -14 -47 -18 -91 -5 -45 -13 -88 -18 -94 -6
-7 -16 -38 -23 -68 -7 -30 -16 -67 -21 -82 -13 -46 20 -35 80 25 154 154 213
353 161 547 -12 47 -22 90 -22 95 1 9 19 80 62 235 17 66 49 205 64 285 43
224 49 288 49 560 0 280 1 274 -50 485 -27 113 -86 278 -123 343 -6 10 -25 44
-41 75 -75 139 -239 334 -370 437 -198 159 -461 289 -714 356 -131 34 -245 54
-455 79 -111 13 -361 11 -476 -5z m141 -1545 c8 -13 -61 -115 -148 -218 -95
-113 -242 -251 -427 -401 -85 -69 -159 -131 -163 -138 -5 -8 -28 -13 -58 -13
-68 0 -179 -17 -267 -41 -41 -12 -76 -18 -79 -15 -3 2 12 31 33 63 229 349
528 574 974 734 116 41 126 43 135 29z m1080 -140 c55 -205 177 -492 263 -620
34 -50 33 -64 -4 -50 -58 22 -217 40 -357 40 -167 0 -310 -18 -424 -55 -77
-24 -83 -25 -420 -25 -337 0 -344 0 -418 25 -42 13 -126 32 -188 41 -62 9
-114 18 -115 19 -2 2 18 6 45 10 467 64 1000 293 1468 632 55 40 106 71 114
70 8 -1 23 -36 36 -87z m-1555 -746 c184 -24 267 -55 342 -130 78 -77 94 -156
57 -274 -63 -203 -283 -457 -472 -544 -204 -94 -423 -61 -549 85 -108 124
-188 354 -188 540 0 147 36 212 149 268 149 75 365 93 661 55z m1630 12 c141
-9 291 -65 348 -131 63 -71 77 -191 43 -356 -54 -258 -153 -412 -311 -488 -69
-33 -82 -35 -170 -35 -163 -1 -286 52 -434 186 -40 37 -99 101 -130 142 -154
205 -200 359 -141 475 63 125 211 185 515 209 92 8 124 8 280 -2z m-846 -85
c9 -14 -46 -91 -68 -97 -12 -3 -66 -4 -121 -2 l-99 3 -28 40 c-15 22 -27 46
-28 53 0 9 40 12 169 12 94 0 172 -4 175 -9z m1506 -581 c0 -11 -4 -20 -10
-20 -5 0 -10 9 -10 20 0 11 5 20 10 20 6 0 10 -9 10 -20z m0 -40 c0 -5 -5 -10
-11 -10 -5 0 -7 5 -4 10 3 6 8 10 11 10 2 0 4 -4 4 -10z"/>
<path d="M2732 3520 c-67 -49 -92 -97 -92 -180 0 -84 19 -129 79 -183 95 -86
229 -75 318 27 70 80 77 204 15 286 -33 44 -52 59 -75 60 -10 0 -15 4 -12 10
4 7 -3 7 -20 0 -35 -13 -168 -13 -160 0 12 19 -12 10 -53 -20z"/>
<path d="M4514 3538 c-5 -7 -40 -9 -99 -5 -90 5 -94 4 -123 -21 -124 -108 -95
-319 52 -388 114 -53 228 -15 301 101 26 41 27 165 2 217 -28 60 -117 123
-133 96z"/>
<path d="M3125 2515 c-19 -19 -25 -35 -25 -70 0 -42 4 -50 48 -93 83 -80 247
-165 382 -198 131 -32 277 -7 445 76 123 60 221 143 231 196 13 71 -36 122
-108 111 -18 -3 -63 -17 -101 -31 -181 -69 -586 -59 -737 19 -46 24 -107 19
-135 -10z"/>
<path d="M3530 1911 c-67 -12 -132 -37 -262 -102 -65 -33 -130 -59 -145 -59
-16 -1 -53 -9 -83 -20 -30 -11 -67 -19 -82 -20 -49 0 -34 -25 47 -78 33 -21
88 -51 123 -68 92 -43 83 -54 -53 -65 -117 -9 -188 -18 -250 -29 -27 -5 -90
-16 -140 -25 -131 -21 -314 -61 -365 -79 -25 -9 -54 -16 -65 -16 -12 0 -25 -4
-30 -8 -6 -5 -30 -14 -55 -21 -25 -7 -54 -17 -65 -21 -11 -4 -36 -13 -55 -20
-19 -7 -54 -21 -77 -31 -24 -11 -46 -19 -49 -19 -3 0 -45 -19 -92 -42 -100
-48 -286 -169 -352 -229 l-45 -41 38 -33 c22 -19 82 -64 135 -102 465 -330
1005 -537 1586 -610 165 -21 603 -23 761 -5 417 49 821 169 1184 351 176 89
465 274 569 365 20 18 52 46 70 62 l33 29 -93 62 c-142 96 -277 166 -428 223
-47 17 -94 35 -105 40 -11 4 -54 18 -95 30 -41 13 -94 29 -118 37 -94 29 -426
95 -577 114 -72 9 -251 28 -271 29 -7 0 -14 -33 -18 -87 -18 -255 -75 -362
-233 -440 l-75 -37 -137 0 c-132 0 -138 1 -201 32 -83 39 -151 106 -189 185
-24 50 -32 86 -42 183 -13 130 -10 160 19 149 104 -41 320 -69 468 -62 159 9
371 57 399 92 6 6 43 28 84 49 145 73 219 136 159 136 -13 0 -52 9 -86 20 -35
11 -75 20 -88 20 -13 0 -77 27 -142 59 -167 84 -225 101 -357 106 -60 2 -130
0 -155 -4z"/>
</g>
</svg>
